<svg width="20" height="20" viewBox="0 0 20 20" fill="none" xmlns="http://www.w3.org/2000/svg">
<path d="M15.0005 11.667C15.3592 13.3369 16.6635 14.6414 18.3335 15C16.6635 15.3586 15.3592 16.6631 15.0005 18.333C14.6418 16.663 13.3365 15.3586 11.6665 15C13.3365 14.6414 14.6418 13.337 15.0005 11.667ZM7.56006 1.83301C8.31961 5.37014 11.0826 8.13385 14.6196 8.89355C11.0827 9.65327 8.31967 12.4161 7.56006 15.9531C6.80044 12.4161 4.03748 9.65325 0.500488 8.89355C4.03759 8.13387 6.8005 5.37016 7.56006 1.83301ZM15.8335 1.66699C16.1026 2.9194 17.081 3.89804 18.3335 4.16699C17.0809 4.43597 16.1025 5.41442 15.8335 6.66699C15.5645 5.41448 14.586 4.43602 13.3335 4.16699C14.586 3.89803 15.5644 2.91941 15.8335 1.66699Z" fill="#0BB5BF"/>
</svg>
