<svg width="56" height="56" viewBox="0 0 56 56" fill="none" xmlns="http://www.w3.org/2000/svg">
<path d="M13.458 28.333C14.6315 28.333 15.5828 29.2846 15.583 30.458C15.583 35.5436 19.7064 39.667 24.792 39.667C25.9654 39.6672 26.917 40.6185 26.917 41.792C26.9168 42.9653 25.9653 43.9168 24.792 43.917C19.7064 43.917 15.583 48.0394 15.583 53.125C15.583 54.2986 14.6316 55.25 13.458 55.25C12.2846 55.2498 11.333 54.2985 11.333 53.125C11.333 48.0394 7.21062 43.917 2.125 43.917C0.951504 43.917 0.000176184 42.9654 0 41.792C0 40.6184 0.951395 39.667 2.125 39.667C7.21062 39.667 11.333 35.5436 11.333 30.458C11.3332 29.2847 12.2847 28.3332 13.458 28.333ZM13.458 37.7197C12.4099 39.3522 11.0192 40.7439 9.38672 41.792C11.019 42.84 12.41 44.231 13.458 45.8633C14.5061 44.2308 15.8978 42.8401 17.5303 41.792C15.8977 40.7438 14.5062 39.3523 13.458 37.7197ZM44.625 0C50.493 6.76491e-07 55.25 4.75697 55.25 10.625V33.292C55.2498 39.1599 50.4929 43.917 44.625 43.917H36.125C34.9515 43.917 34.0002 42.9654 34 41.792C34 40.6184 34.9514 39.667 36.125 39.667H44.625C48.1457 39.667 50.9998 36.8127 51 33.292V18.417H4.25V30.458C4.25 31.6316 3.29861 32.583 2.125 32.583C0.951395 32.583 0 31.6316 0 30.458V10.625C3.22139e-07 4.75697 4.75697 0 10.625 0H44.625ZM41.792 28.333C42.9653 28.3332 43.9168 29.2847 43.917 30.458C43.917 31.6315 42.9654 32.5828 41.792 32.583H33.292C32.1184 32.583 31.167 31.6316 31.167 30.458C31.1672 29.2846 32.1185 28.333 33.292 28.333H41.792ZM10.625 4.25C7.10418 4.25 4.25 7.10418 4.25 10.625V14.167H51V10.625C51 7.10419 48.1458 4.25 44.625 4.25H10.625Z" fill="#0BB5BF"/>
</svg>
