<svg width="68" height="68" viewBox="0 0 68 68" fill="none" xmlns="http://www.w3.org/2000/svg">
<path d="M22.662 40.3784C22.7308 40.3784 22.7995 40.3815 22.868 40.3882C22.9149 40.3927 22.9608 40.4012 23.0067 40.4087C23.0285 40.4123 23.0505 40.4142 23.0721 40.4185C23.1187 40.4276 23.1644 40.4396 23.2098 40.4517C23.2314 40.4574 23.2529 40.4628 23.2743 40.4692C23.3117 40.4805 23.3481 40.4941 23.3846 40.5073C23.4145 40.5181 23.445 40.5274 23.4745 40.5396C23.5031 40.5514 23.5305 40.5656 23.5585 40.5786C23.5951 40.5957 23.6321 40.6121 23.6678 40.6313C23.6823 40.6391 23.6956 40.6487 23.7098 40.6567C23.8131 40.7154 23.9134 40.7816 24.0077 40.8589C24.1167 40.9482 24.2162 41.0487 24.3055 41.1577C24.3196 41.1748 24.3322 41.193 24.3456 41.2104C24.375 41.2487 24.4037 41.2874 24.4305 41.3276C24.4493 41.3557 24.466 41.3848 24.4833 41.4136C24.5 41.4415 24.5176 41.4688 24.5331 41.4976C24.5503 41.5295 24.5645 41.5626 24.58 41.5952C24.5957 41.6283 24.6128 41.6608 24.6268 41.6948C24.6357 41.7163 24.6422 41.7386 24.6503 41.7603C24.666 41.8022 24.6821 41.8441 24.6952 41.8872C24.7029 41.9126 24.708 41.9387 24.7147 41.9644C24.7599 42.1367 24.787 42.3169 24.787 42.5034V53.8413C24.787 55.0149 23.8355 55.9662 22.662 55.9663C21.4884 55.9663 20.537 55.0149 20.537 53.8413V47.6333L9.99207 58.1782C9.1622 59.0081 7.81607 59.0081 6.98621 58.1782C6.15666 57.3484 6.15657 56.0031 6.98621 55.1733L17.5311 44.6284H11.3241C10.1505 44.6284 9.19914 43.677 9.1991 42.5034C9.1991 41.3298 10.1505 40.3784 11.3241 40.3784H22.662ZM53.8417 9.19873C58.1472 9.19895 61.6355 12.6872 61.6356 16.9927V51.0073C61.6355 55.3128 58.1472 58.8011 53.8417 58.8013H33.9999C32.8263 58.8013 31.875 57.8498 31.8749 56.6763V13.4487H14.1581C12.1996 13.4487 10.6143 15.0342 10.6141 16.9927V33.9995C10.6141 35.1731 9.66271 36.1245 8.48914 36.1245C7.31553 36.1245 6.36414 35.1731 6.36414 33.9995V16.9927C6.36426 12.687 9.85242 9.19873 14.1581 9.19873H53.8417ZM36.1249 54.5513H53.8417C55.7999 54.5511 57.3855 52.9656 57.3856 51.0073V16.9927C57.3855 15.0344 55.7999 13.4489 53.8417 13.4487H36.1249V54.5513ZM51.0077 43.2134C52.1813 43.2134 53.1327 44.1648 53.1327 45.3384C53.1325 46.5118 52.1812 47.4634 51.0077 47.4634H42.5048C41.3313 47.4634 40.3799 46.5118 40.3798 45.3384C40.3798 44.1648 41.3312 43.2134 42.5048 43.2134H51.0077ZM51.0077 31.8745C52.1812 31.8745 53.1325 32.8261 53.1327 33.9995C53.1327 35.1731 52.1813 36.1245 51.0077 36.1245H42.5048C41.3312 36.1245 40.3798 35.1731 40.3798 33.9995C40.38 32.8261 41.3313 31.8745 42.5048 31.8745H51.0077ZM51.0077 20.5366C52.1813 20.5366 53.1326 21.4881 53.1327 22.6616C53.1327 23.8352 52.1813 24.7866 51.0077 24.7866H42.5048C41.3312 24.7866 40.3798 23.8352 40.3798 22.6616C40.3798 21.4881 41.3312 20.5366 42.5048 20.5366H51.0077Z" fill="#0BB5BF"/>
</svg>
