<svg width="25" height="24" viewBox="0 0 25 24" fill="none" xmlns="http://www.w3.org/2000/svg">
<path d="M12.5001 1.992C10.6898 1.99233 8.91358 2.48407 7.36085 3.41476C5.80811 4.34545 4.53715 5.68018 3.68352 7.27658C2.82989 8.87297 2.42562 10.6712 2.51384 12.4793C2.60205 14.2874 3.17944 16.0377 4.18441 17.5434C5.18939 19.0492 6.58424 20.2538 8.2202 21.029C9.85615 21.8041 11.6718 22.1206 13.4736 21.9447C15.2753 21.7688 16.9955 21.1071 18.4506 20.0302C19.9058 18.9533 21.0413 17.5017 21.7361 15.83C22.0771 15.01 21.2601 14.186 20.4381 14.52C19.0293 15.0907 17.465 15.1496 16.0173 14.6864C14.5695 14.2233 13.3299 13.2674 12.5139 11.985C11.6978 10.7026 11.3571 9.17478 11.5508 7.66715C11.7445 6.15952 12.4604 4.76746 13.5741 3.733L13.6511 3.653C14.2021 3.023 13.7641 2 12.8931 2H12.6271L12.5591 1.994L12.5001 1.992Z" fill="#51564E"/>
</svg>
