<svg width="68" height="68" viewBox="0 0 68 68" fill="none" xmlns="http://www.w3.org/2000/svg">
<path fill-rule="evenodd" clip-rule="evenodd" d="M57.8637 33.9857C58.6935 34.8155 58.6935 36.161 57.8637 36.9909L56.064 38.7905C55.2341 39.6204 53.8886 39.6204 53.0588 38.7905C52.2289 37.9607 52.2289 36.6152 53.0588 35.7853L54.8584 33.9857C55.6883 33.1558 57.0338 33.1558 57.8637 33.9857Z" fill="#0BB5BF"/>
<path fill-rule="evenodd" clip-rule="evenodd" d="M38.7905 53.0588C39.6204 53.8886 39.6204 55.2341 38.7905 56.064L36.9909 57.8637C36.161 58.6935 34.8155 58.6935 33.9857 57.8637C33.1558 57.0338 33.1558 55.6883 33.9857 54.8584L35.7853 53.0588C36.6152 52.2289 37.9607 52.2289 38.7905 53.0588Z" fill="#0BB5BF"/>
<path fill-rule="evenodd" clip-rule="evenodd" d="M45.9247 29.0404C47.0983 29.0404 48.0497 29.9918 48.0497 31.1654V33.7105C48.0497 34.8841 47.0983 35.8355 45.9247 35.8355C44.751 35.8355 43.7997 34.8841 43.7997 33.7105V31.1654C43.7997 29.9918 44.751 29.0404 45.9247 29.0404Z" fill="#0BB5BF"/>
<path fill-rule="evenodd" clip-rule="evenodd" d="M33.9857 33.9857C34.8155 33.1558 36.161 33.1558 36.9909 33.9857L38.7905 35.7853C39.6204 36.6152 39.6204 37.9607 38.7905 38.7905C37.9607 39.6204 36.6152 39.6204 35.7853 38.7905L33.9857 36.9909C33.1558 36.161 33.1558 34.8155 33.9857 33.9857Z" fill="#0BB5BF"/>
<path fill-rule="evenodd" clip-rule="evenodd" d="M29.0404 45.9247C29.0404 44.751 29.9918 43.7997 31.1654 43.7997H33.7105C34.8841 43.7997 35.8355 44.751 35.8355 45.9247C35.8355 47.0983 34.8841 48.0497 33.7105 48.0497H31.1654C29.9918 48.0497 29.0404 47.0983 29.0404 45.9247Z" fill="#0BB5BF"/>
<path fill-rule="evenodd" clip-rule="evenodd" d="M42.7227 42.7226C43.7118 41.7335 45.1749 41.3881 46.502 41.8304L59.1099 46.0331C60.4782 46.4892 61.4557 47.7 61.6131 49.1337C61.7706 50.5673 61.079 51.9614 59.8423 52.7035L55.5974 55.2504C55.4551 55.3358 55.336 55.455 55.2506 55.5973L52.7037 59.8421C51.9616 61.0788 50.5675 61.7705 49.1338 61.6131C47.7001 61.4557 46.4893 60.4782 46.0332 59.1099L41.8305 46.502C41.3881 45.1749 41.7335 43.7118 42.7227 42.7226ZM46.2146 46.2145L56.6174 49.6821L53.4109 51.6061C52.6703 52.0504 52.0505 52.6702 51.6062 53.4107L49.6822 56.6173L46.2146 46.2145Z" fill="#0BB5BF"/>
<path fill-rule="evenodd" clip-rule="evenodd" d="M52.3974 52.3974C53.2272 51.5675 54.5727 51.5675 55.4026 52.3974L60.2082 57.203C61.038 58.0328 61.038 59.3783 60.2082 60.2082C59.3783 61.038 58.0328 61.038 57.203 60.2082L52.3974 55.4026C51.5675 54.5727 51.5675 53.2272 52.3974 52.3974Z" fill="#0BB5BF"/>
<path fill-rule="evenodd" clip-rule="evenodd" d="M6.36426 19.8273C6.36426 18.6537 7.31565 17.7023 8.48926 17.7023H59.5105C60.6841 17.7023 61.6355 18.6537 61.6355 19.8273C61.6355 21.0009 60.6841 21.9523 59.5105 21.9523H8.48926C7.31565 21.9523 6.36426 21.0009 6.36426 19.8273Z" fill="#0BB5BF"/>
<path fill-rule="evenodd" clip-rule="evenodd" d="M16.9928 10.6143C13.47 10.6143 10.6143 13.47 10.6143 16.9928V39.6689C10.6143 43.1917 13.47 46.0475 16.9928 46.0475H19.8273C21.0009 46.0475 21.9523 46.9988 21.9523 48.1725C21.9523 49.3461 21.0009 50.2975 19.8273 50.2975H16.9928C11.1228 50.2975 6.36426 45.5389 6.36426 39.6689V16.9928C6.36426 11.1228 11.1228 6.36426 16.9928 6.36426H51.007C56.8769 6.36426 61.6355 11.1228 61.6355 16.9928V25.4963C61.6355 26.6699 60.6841 27.6213 59.5105 27.6213C58.3369 27.6213 57.3855 26.6699 57.3855 25.4963V16.9928C57.3855 13.47 54.5297 10.6143 51.007 10.6143H16.9928Z" fill="#0BB5BF"/>
</svg>
