<svg width="25" height="24" viewBox="0 0 25 24" fill="none" xmlns="http://www.w3.org/2000/svg">
<path d="M18.5 12C18.5 13.5913 17.8679 15.1174 16.7426 16.2426C15.6174 17.3679 14.0913 18 12.5 18C10.9087 18 9.38258 17.3679 8.25736 16.2426C7.13214 15.1174 6.5 13.5913 6.5 12C6.5 10.4087 7.13214 8.88258 8.25736 7.75736C9.38258 6.63214 10.9087 6 12.5 6C14.0913 6 15.6174 6.63214 16.7426 7.75736C17.8679 8.88258 18.5 10.4087 18.5 12Z" fill="#CCCCCC"/>
<path fill-rule="evenodd" clip-rule="evenodd" d="M12.5 1.25C12.6989 1.25 12.8897 1.32902 13.0303 1.46967C13.171 1.61032 13.25 1.80109 13.25 2V3C13.25 3.19891 13.171 3.38968 13.0303 3.53033C12.8897 3.67098 12.6989 3.75 12.5 3.75C12.3011 3.75 12.1103 3.67098 11.9697 3.53033C11.829 3.38968 11.75 3.19891 11.75 3V2C11.75 1.80109 11.829 1.61032 11.9697 1.46967C12.1103 1.32902 12.3011 1.25 12.5 1.25ZM4.899 4.399C5.03963 4.25855 5.23025 4.17966 5.429 4.17966C5.62775 4.17966 5.81837 4.25855 5.959 4.399L6.352 4.791C6.48869 4.93239 6.56437 5.1218 6.56276 5.31845C6.56114 5.5151 6.48235 5.70325 6.34336 5.84237C6.20437 5.98149 6.0163 6.06046 5.81965 6.06226C5.623 6.06406 5.43352 5.98855 5.292 5.852L4.899 5.459C4.75855 5.31837 4.67966 5.12775 4.67966 4.929C4.67966 4.73025 4.75855 4.53963 4.899 4.399ZM20.101 4.399C20.2415 4.53963 20.3203 4.73025 20.3203 4.929C20.3203 5.12775 20.2415 5.31837 20.101 5.459L19.708 5.852C19.5658 5.98448 19.3778 6.0566 19.1835 6.05317C18.9892 6.04975 18.8038 5.97103 18.6664 5.83362C18.529 5.69621 18.4503 5.51082 18.4468 5.31652C18.4434 5.12222 18.5155 4.93417 18.648 4.792L19.041 4.399C19.1816 4.25855 19.3722 4.17966 19.571 4.17966C19.7697 4.17966 19.9604 4.25855 20.101 4.399ZM1.75 12C1.75 11.8011 1.82902 11.6103 1.96967 11.4697C2.11032 11.329 2.30109 11.25 2.5 11.25H3.5C3.69891 11.25 3.88968 11.329 4.03033 11.4697C4.17098 11.6103 4.25 11.8011 4.25 12C4.25 12.1989 4.17098 12.3897 4.03033 12.5303C3.88968 12.671 3.69891 12.75 3.5 12.75H2.5C2.30109 12.75 2.11032 12.671 1.96967 12.5303C1.82902 12.3897 1.75 12.1989 1.75 12ZM20.75 12C20.75 11.8011 20.829 11.6103 20.9697 11.4697C21.1103 11.329 21.3011 11.25 21.5 11.25H22.5C22.6989 11.25 22.8897 11.329 23.0303 11.4697C23.171 11.6103 23.25 11.8011 23.25 12C23.25 12.1989 23.171 12.3897 23.0303 12.5303C22.8897 12.671 22.6989 12.75 22.5 12.75H21.5C21.3011 12.75 21.1103 12.671 20.9697 12.5303C20.829 12.3897 20.75 12.1989 20.75 12ZM18.648 18.148C18.7886 18.0076 18.9792 17.9287 19.178 17.9287C19.3768 17.9287 19.5674 18.0076 19.708 18.148L20.101 18.541C20.1747 18.6097 20.2338 18.6925 20.2748 18.7845C20.3158 18.8765 20.3378 18.9758 20.3396 19.0765C20.3414 19.1772 20.3228 19.2772 20.2851 19.3706C20.2474 19.464 20.1913 19.5488 20.12 19.62C20.0488 19.6913 19.964 19.7474 19.8706 19.7851C19.7772 19.8228 19.6772 19.8414 19.5765 19.8396C19.4758 19.8378 19.3765 19.8158 19.2845 19.7748C19.1925 19.7338 19.1097 19.6747 19.041 19.601L18.648 19.208C18.5076 19.0674 18.4287 18.8768 18.4287 18.678C18.4287 18.4792 18.5076 18.2886 18.648 18.148ZM6.352 18.148C6.49245 18.2886 6.57134 18.4792 6.57134 18.678C6.57134 18.8768 6.49245 19.0674 6.352 19.208L5.959 19.601C5.89034 19.6747 5.80754 19.7338 5.71554 19.7748C5.62354 19.8158 5.52423 19.8378 5.42352 19.8396C5.32282 19.8414 5.22279 19.8228 5.1294 19.7851C5.03601 19.7474 4.95118 19.6913 4.87996 19.62C4.80874 19.5488 4.7526 19.464 4.71488 19.3706C4.67716 19.2772 4.65863 19.1772 4.66041 19.0765C4.66219 18.9758 4.68423 18.8765 4.72522 18.7845C4.76621 18.6925 4.82531 18.6097 4.899 18.541L5.291 18.148C5.36065 18.0783 5.44335 18.023 5.53438 17.9853C5.6254 17.9476 5.72297 17.9282 5.8215 17.9282C5.92003 17.9282 6.0176 17.9476 6.10862 17.9853C6.19965 18.023 6.28235 18.0783 6.352 18.148ZM12.5 20.25C12.6989 20.25 12.8897 20.329 13.0303 20.4697C13.171 20.6103 13.25 20.8011 13.25 21V22C13.25 22.1989 13.171 22.3897 13.0303 22.5303C12.8897 22.671 12.6989 22.75 12.5 22.75C12.3011 22.75 12.1103 22.671 11.9697 22.5303C11.829 22.3897 11.75 22.1989 11.75 22V21C11.75 20.8011 11.829 20.6103 11.9697 20.4697C12.1103 20.329 12.3011 20.25 12.5 20.25Z" fill="#CCCCCC"/>
</svg>
